<svg id="Capa_1" data-name="Capa 1" xmlns="http://www.w3.org/2000/svg" viewBox="0 0 113.8 113.8">
  <g>
    <rect width="113.8" height="113.8" rx="9.95" style="fill: #1d1d1b"/>
    <g>
      <path d="M80.44,25.14c0,1.62.06,3.22.09,4.79s0,3.16,0,4.74c0,1.33-.09,2.65-.17,3.94s-.15,2.61-.22,3.94-.09-3-.07-1.79,0,2.49-.07,3.72c0,.61-.06,1.23-.08,1.85a7.31,7.31,0,0,1-.26,1.8c-.1.42-.19.85-.27,1.31a1.81,1.81,0,0,1-.66,1.12,2.9,2.9,0,0,1-1,.53c-.37.13-.72.25-1,.34a3.18,3.18,0,0,1-1.39.2,8,8,0,0,1-1.38-.2,3.44,3.44,0,0,1-1.44-.63,2.43,2.43,0,0,1-.9-1.21,4.91,4.91,0,0,1-.15-1.22c-.06-1.46-.11-2.91-.14-4.35s0-2.9,0-4.36.07,2.34,0,.75-.07-3.19-.07-4.81c0-1.46,0-2.92,0-4.38s.11-2.92.17-4.38c0-.39.07-.78.1-1.19s.08-.83.15-1.29l-.22.22-.17.17c-.36.46-.71.89-1,1.31s-.69.86-1,1.32a1.62,1.62,0,0,1-1.24.7,1.47,1.47,0,0,1-1.24-.65,11.69,11.69,0,0,1-1-1.56l-.47-.73-.46-.73a.45.45,0,0,0-.19.05,8.72,8.72,0,0,1,0,.9v.9c0,1.62,0,3.23.07,4.84s0,8.73,0,10.35c0,.91,0,1.81-.07,2.7s-.09,1.79-.12,2.7c-.07,1.23-.12,2.46-.17,3.67S64.3,53,64.24,54.2c0,.16,0,.33,0,.51s0,.34-.08.51a1.06,1.06,0,0,1-.73.82q-.78.3-1.53.54a3.35,3.35,0,0,1-1.58.1,10.52,10.52,0,0,1-2.43-.59,3,3,0,0,1-1.95-2.72c-.19-2.59-.3-5.18-.31-7.76s0-10.69,0-13.32c0-1.23.06-2.47.17-3.72s.2-2.49.27-3.72.12-2.27.17-3.41.1-2.26.17-3.4c.06-.68.12-1.36.17-2s.12-1.35.22-2a4.73,4.73,0,0,1,.49-1.65,1.5,1.5,0,0,1,1.55-1.12q.93,0,1.8,0l1.75,0,.2,0a.25.25,0,0,0,.19,0,2.06,2.06,0,0,1,2,.87c.58.75,1.18,1.46,1.8,2.12a10,10,0,0,1,1.55,2.26.44.44,0,0,0,.07.12l.13.13a5.51,5.51,0,0,0,.48-.54A19.13,19.13,0,0,1,70.59,14c.66-.71,1.37-1.41,2.11-2.09a3.45,3.45,0,0,1,.9-.65A2.07,2.07,0,0,1,74.74,11l1.83,0,1.82.07a2,2,0,0,1,.59.1,4.12,4.12,0,0,0,.48.15,2.92,2.92,0,0,1,.93,2c0,.69,0,1.38,0,2.06a3.33,3.33,0,0,1,0,.56,3.43,3.43,0,0,0-.05.56c0,1.46.07,2.9.1,4.31S80.4,23.68,80.44,25.14Z" style="fill: #fff"/>
      <path d="M102.61,15.07c.07,1.43.11,2.83.12,4.21s0,2.78.08,4.21c0,.68,0,1.37,0,2.06a16.72,16.72,0,0,1,0,2.12c-.07.58-.13,1.16-.2,1.73a10.92,10.92,0,0,0,0,1.72c0,.75.06,1.47.08,2.17s0,1.4.07,2.11c0,1.46.05,2.91.05,4.36s0,2.89-.1,4.35-.11,2.71-.14,4a18.85,18.85,0,0,1-.54,4,5.28,5.28,0,0,1-.26.93,2,2,0,0,1-.56.78,1.23,1.23,0,0,1-.46.36l-.5.22a7.29,7.29,0,0,1-1.79.36c-.62,0-1.23.08-1.84.08a4.7,4.7,0,0,1-1.06,0,1.56,1.56,0,0,1-.92-.46,1.37,1.37,0,0,1-.39-.73,6.5,6.5,0,0,1-.15-.9,4.62,4.62,0,0,0-.17-.87,1.16,1.16,0,0,0-.46-.66,1.1,1.1,0,0,0-.85-.22,5.63,5.63,0,0,1-.9.07H89.38a9.46,9.46,0,0,0-1.5,0A3.9,3.9,0,0,1,86.42,51a5.91,5.91,0,0,1-1.1-.42,9.36,9.36,0,0,1-1.26-.73,4.2,4.2,0,0,1-1-.94,1.75,1.75,0,0,1-.42-1.07,13.63,13.63,0,0,1-.8-2.44,11.61,11.61,0,0,1-.27-2.53V37.62c0-1.74,0-3.48,0-5.23,0-2.76,0-5.47,0-8.15s.12-5.37.31-8.1c.07-.52.14-1,.22-1.5a3.4,3.4,0,0,1,.56-1.37,2.86,2.86,0,0,1,1.17-1,5,5,0,0,1,1.55-.44,7.4,7.4,0,0,1,1.56,0c.52.05,1,.12,1.61.22l.6.17a2.61,2.61,0,0,1,.61.22,2.31,2.31,0,0,1,.59.39,1.76,1.76,0,0,1,.41.92,7.69,7.69,0,0,1,.07,1.07c0,1.23,0,2.46-.12,3.7l-.24,3.69c-.08,1.24-.13,2.47-.15,3.7a29.46,29.46,0,0,0,.17,3.65,26.58,26.58,0,0,1,.07,2.7q0,1.38-.12,2.7c-.06.9-.12,1.8-.17,2.69a6.18,6.18,0,0,0,.46,2.66,1.56,1.56,0,0,0,.83,1,1.53,1.53,0,0,0,.54.09,1.51,1.51,0,0,0,.53-.09,2.35,2.35,0,0,0,1.46-1.41,3.42,3.42,0,0,0,.19-1.17c.2-1.75.35-3.57.44-5.45,0-.35,0-.7,0-1s0-.69,0-1.05c0-1,0-1.95,0-2.94s0-2,0-2.94-.09-2.1-.17-3.19a17.86,17.86,0,0,1,0-3.19,22.05,22.05,0,0,0,.14-2.6,6.21,6.21,0,0,1,.54-2.55,5.67,5.67,0,0,1,.62-1.05,2.43,2.43,0,0,1,.92-.75,2.58,2.58,0,0,1,1-.27l1,0a10.64,10.64,0,0,1,1.88.26,2.47,2.47,0,0,1,1.45.95,2.36,2.36,0,0,1,.41,1.05C102.54,14.35,102.58,14.72,102.61,15.07Z" style="fill: #fff"/>
      <g>
        <path d="M48.89,86.24a3.53,3.53,0,0,1,2.89,3.26,14.15,14.15,0,0,1,.07,1.94c0,.63-.06,1.28-.13,1.94,0,.49-.06,1-.08,1.52s0,1,0,1.58-.08,1-.13,1.55a3.92,3.92,0,0,1-.5,1.49,3.74,3.74,0,0,1-2.05,1.63,8,8,0,0,1-2.2.5l-2.26.13c-.49,0-1.13,0-1.91,0l-2.44.1-2.44.11c-.79,0-1.43.07-1.92.1-.8.07-1.63.11-2.47.11a15.09,15.09,0,0,1-2.51-.21,4.62,4.62,0,0,1-2.1-.89,3.1,3.1,0,0,1-1.16-2.31q-.26-4.09-.21-8.16t.13-8.14c.06-2.71.07-5.42.06-8.13s-.15-5.43-.4-8.16a18.94,18.94,0,0,1-.1-2,4.35,4.35,0,0,1,.42-1.89,3.55,3.55,0,0,1,1.28-1.47,6.06,6.06,0,0,1,1.81-.84,11.06,11.06,0,0,1,3.15-.39l3.15,0c1.33,0,2.64,0,3.94,0s2.6,0,3.93.08A13.09,13.09,0,0,1,46,60l1.32.21a2.64,2.64,0,0,1,1.18.48,2.28,2.28,0,0,1,.76,1c.07.17.15.36.26.57s.19.41.26.58a4.06,4.06,0,0,1,.11,2.57,3.3,3.3,0,0,0-.08.47,3,3,0,0,0,0,.42c-.07.7-.1,1.39-.1,2.08s0,1.37-.11,2.07c0,.49,0,1.1,0,1.84A2,2,0,0,1,49,73.91a1.39,1.39,0,0,1-.55.29,5.29,5.29,0,0,1-.6.13c-.81.07-1.59.12-2.36.13a18.8,18.8,0,0,1-2.36-.08l-.92-.2a1.14,1.14,0,0,1-.71-.48,1.07,1.07,0,0,1-.24-.6c0-.23,0-.46-.07-.71V70.82a1.23,1.23,0,0,0-.21-.74h-.06a.46.46,0,0,0-.26-.13l-.37-.08a5.81,5.81,0,0,1-.76-.05,5.81,5.81,0,0,0-.76,0c-.17,0-.46.08-.86.13s-.64.15-.71.29a2.5,2.5,0,0,0-.53,1.57q-.15,3.1-.15,6.25c0,.7,0,1.4.1,2.12s.1,1.43.1,2.13c0,1-.07,1.95-.13,2.91s-.09,1.91-.13,2.86c0,.42-.06.83-.08,1.23a9.21,9.21,0,0,0,0,1.18,1.76,1.76,0,0,0,1.73,1.84l1,0,1.47,0c.51,0,1,0,1.47,0h1a1.09,1.09,0,0,0,.37-.49,1.81,1.81,0,0,0,.1-.61c0-.52.07-1,.11-1.55s.07-1,.1-1.54a1.55,1.55,0,0,1,.9-1.47,9.15,9.15,0,0,1,2.1-.58A5.9,5.9,0,0,1,48.89,86.24Z" style="fill: #fff"/>
        <path d="M78.38,61.37q0,1.58,0,3.15c0,1-.06,2.1-.13,3.15a9.64,9.64,0,0,0-.06,1.78c0,.6.06,1.19.06,1.79,0,1.43,0,2.86,0,4.27s0,2.85,0,4.28v6.3c0,.49-.07,1-.1,1.52s-.07,1-.11,1.57-.07,1.21-.1,1.84-.07,1.24-.11,1.84c-.07,1.15-.12,2.31-.15,3.46s-.09,2.33-.16,3.52a2.73,2.73,0,0,1-2,2.41,6.46,6.46,0,0,1-3.72-.16,3.55,3.55,0,0,1-1.79-1.23,4.23,4.23,0,0,1-.68-2.13c-.18-1.68-.28-3.36-.32-5.06s-.08-3.4-.15-5.12a2.49,2.49,0,0,0-.06-.57l-2.2-.11-2.26-.1a10.39,10.39,0,0,0-.21,2c0,.67,0,1.35.11,2a7.38,7.38,0,0,1,0,.94c0,.32,0,.63,0,1,0,.52-.08,1-.13,1.55s-.08,1-.08,1.54a7.85,7.85,0,0,1-.26,2.37l-.63,2.3a1.15,1.15,0,0,1-.42.66,2,2,0,0,1-.74.34,6.23,6.23,0,0,1-2.65.26,5.15,5.15,0,0,1-2.49-1,3,3,0,0,1-1.21-2.25q-.25-2.89-.36-5.77c-.07-1.93-.13-3.85-.16-5.78a6.1,6.1,0,0,1-1.76-.13A1.9,1.9,0,0,1,52,87a1.37,1.37,0,0,1-.24-.71c0-.26,0-.52,0-.76,0-.74.07-1.47.11-2.2s0-1.47,0-2.21q-.06-1.36.6-1.65a4.82,4.82,0,0,1,1.86-.29h.84q.1-3.47.19-6.85c0-2.25.11-4.54.18-6.85,0-.77,0-1.53.11-2.3A7.83,7.83,0,0,1,56.13,61a1.57,1.57,0,0,1,1.29-1,9.7,9.7,0,0,1,1.75-.19,9.37,9.37,0,0,1,1.58.14l1.57.23a7.52,7.52,0,0,1,1,.29,1.73,1.73,0,0,1,.81.6,1.47,1.47,0,0,1,.24.71c0,.26,0,.52,0,.76,0,1.72,0,3.42,0,5.12s0,3.38,0,5.06c-.07,1-.1,2-.08,3s0,2,0,3a.23.23,0,0,0,0,.11.49.49,0,0,1,0,.15c.7,0,1.41,0,2.13,0s1.42,0,2.12,0a.85.85,0,0,0,.11-.32q.1-2.42.36-4.77A30.44,30.44,0,0,0,69.3,69c0-.8,0-1.58,0-2.33s0-1.53.07-2.34c0-.38,0-.74,0-1.07s0-.69,0-1.08a3.45,3.45,0,0,1,.73-2.33,4.12,4.12,0,0,1,2.36-1,12.43,12.43,0,0,1,4,.27A2.14,2.14,0,0,1,78.38,61.37Z" style="fill: #fff"/>
        <path d="M101.63,86.51c-.07,1.61-.08,3.22,0,4.85a16.51,16.51,0,0,1-.55,4.8,10.4,10.4,0,0,1-1.34,3A4.14,4.14,0,0,1,97.22,101a2.87,2.87,0,0,1-.87.18l-.86.08c-.95.07-1.9.12-2.86.13s-1.92.06-2.86.13-1.94.12-2.89.14a19,19,0,0,1-2.89-.19,9.23,9.23,0,0,1-1.31-.29,3.76,3.76,0,0,1-1.2-.6A3.4,3.4,0,0,1,80.24,99a9.13,9.13,0,0,1-.55-2c-.07-.56-.11-1.12-.13-1.68s0-1.13,0-1.73c0-1.26,0-2.52,0-3.78s0-2.52,0-3.78c0-1.64,0-3.28.08-4.9s.17-3.26.34-4.91.3-3.49.37-5.22.14-3.47.21-5.22c0-.28.07-.54.1-.79a3.35,3.35,0,0,1,.21-.73c.28-.74.57-1.45.87-2.15a3.53,3.53,0,0,1,1.5-1.68,6,6,0,0,1,2.15-.76c.77-.13,1.54-.22,2.31-.29,1-.07,1.94-.12,2.88-.13s1.89,0,2.84,0a21.75,21.75,0,0,1,2.41.13,6,6,0,0,1,2.26.71,5.06,5.06,0,0,1,1.81,1.6,7.91,7.91,0,0,1,1.07,2.23,10.28,10.28,0,0,1,.45,2.44c0,.82.09,1.64.13,2.44.07,1.29.11,2.58.13,3.86s0,2.56,0,3.85c0,.81-.07,1.6-.1,2.39s-.07,1.58-.11,2.39-.06,1.48-.07,2.23a9.39,9.39,0,0,0,.23,2.28.89.89,0,0,1,.11.4Zm-8.45,2.31c0-.81,0-1.61,0-2.42V84c0-.74,0-1.47,0-2.21s-.07-1.47-.11-2.2c-.07-1-.13-2.11-.18-3.17s-.11-2.13-.18-3.18a10.26,10.26,0,0,0-.19-1.29c-.09-.4-.16-.77-.23-1.12a1.64,1.64,0,0,0-.87-.63,2.59,2.59,0,0,0-.87-.06,2.21,2.21,0,0,0-1.31.56,1.45,1.45,0,0,0-.57,1.12c0,.81-.07,1.61-.08,2.42s0,1.61,0,2.41a16,16,0,0,0,.13,2,14.28,14.28,0,0,1,.13,2c0,1.08,0,2.17-.05,3.25s-.07,2.17-.1,3.25v3.36a1.09,1.09,0,0,0,.23.89,3.1,3.1,0,0,0,.76.58,3.25,3.25,0,0,0,.63.21l.79-.21.74-.21a2.2,2.2,0,0,0,.91-.58,1.2,1.2,0,0,0,.29-1,3.85,3.85,0,0,1,.06-.66A5,5,0,0,0,93.18,88.82Z" style="fill: #fff"/>
      </g>
    </g>
    <path d="M43,43.42a9.06,9.06,0,0,1,2-.65,12.18,12.18,0,0,1,2.63-.29,9.17,9.17,0,0,1,2.4.29A2,2,0,0,1,51.39,44a3.79,3.79,0,0,1,.12.94V48.1a16.94,16.94,0,0,1-.12,2,4.48,4.48,0,0,1-.7,1.93,4,4,0,0,1-1.87,1.52,3.06,3.06,0,0,1-1.17.24h-3a4,4,0,0,1-1.17-.12A2.23,2.23,0,0,1,41.69,52a5.7,5.7,0,0,1-.3-1.34c0-.43,0-.88,0-1.35s0-.93-.06-1.4-.06-.93-.06-1.4v-.94a1.43,1.43,0,0,1,.23-.82A3,3,0,0,1,43,43.42Z" style="fill: #fff"/>
  </g>
</svg>
